<?xml version="1.0" encoding="iso-8859-1"?>
<!-- Generator: Adobe Illustrator 21.0.0, SVG Export Plug-In . SVG Version: 6.00 Build 0)  -->
<svg version="1.1" id="Capa_1" xmlns="http://www.w3.org/2000/svg" xmlns:xlink="http://www.w3.org/1999/xlink" x="0px" y="0px"
	 viewBox="0 0 178.38 224.55" style="enable-background:new 0 0 178.38 224.55;" xml:space="preserve">
<g>
	<path style="fill-rule:evenodd;clip-rule:evenodd;fill:#5E0B72;" d="M37.51,179.85c-0.44,2.49-2.56,6.87-3.66,9.22
		c-1.8,3.86-5.09,9.99-7.74,13.13l-1.43,1.76c-0.37,0.39-0.5,0.54-0.83,0.91c-0.77,0.89-5.96,6.1-8.07,3.26
		c-3.34-4.47,4.92-15.35,6.76-17.33l1.52-1.67c0.56-0.63,1.06-1,1.63-1.57l3.53-2.98C30.76,183.44,35.24,180.51,37.51,179.85
		L37.51,179.85L37.51,179.85L37.51,179.85z M113.68,134.73c-0.07-1.64,1.6-8.08,2.07-10.01c1.3-5.3,3.26-13.31,6.62-17.31
		c0.56-0.66,0.75-1.09,1.46-1.61c0.53-0.39,0.99-0.81,1.77-1.17c1.91-0.89,3.01,0.48,3.61,1.82c2.33,5.21-0.81,15.02-2.55,19.86
		c-1.46,4.08-3.81,8.66-8.36,9.6C115.61,136.46,114.99,135.36,113.68,134.73L113.68,134.73L113.68,134.73L113.68,134.73z
		 M90.21,108.26c1.86-0.45,3.37,0.67,3.35,2.47c-0.03,2.72-2.7,11.4-3.57,13.97c-1.02,3.03-4.5,15.74-9.2,13.95
		C72.96,135.68,78.7,111.07,90.21,108.26L90.21,108.26L90.21,108.26L90.21,108.26z M58.22,108.34c-0.78,2.13-1.54,4.52-2.2,6.71
		c-1.36,4.5-3.04,8.94-4.67,13.13c-2.07,5.32-4.45,10.9-9.05,13.3c-1.19,0.62-2.4,0.65-3.27-0.15c-1.67-1.52-1.04-5.01-0.52-7.35
		c1.02-4.6,2.72-9.23,4.09-13.72c0.53-1.75,1.71-5.46,1.36-7.27c-0.44-2.33-2.1-3.95-4.44-4.41c-3.56-0.7-4.71,0.22-4.71,3.76
		c0,3.33-0.3,4.64-1.41,7.46c-2.45,6.3-8.01,21.36-6.07,28.62c1.19,4.44,5.34,7.79,11,5.81c2.97-1.04,5.69-3.28,7.84-5.56
		c0.36-0.39,1.66-1.84,1.88-2.4c-1.26,3.87-2.75,8.16-4.07,12.29c-0.34,1.05-0.64,2.08-1.01,3.11c-1.14,3.18-0.64,4.2-3.05,5.23
		c-0.87,0.37-2.03,0.75-2.9,1.06c-4.48,1.64-13.49,7.35-17.04,10.86c-0.2,0.19-0.3,0.25-0.51,0.42c-0.7,0.54-1.37,1.33-2.01,1.98
		l-3.91,4.32c-1.27,1.5-2.33,3.17-3.33,4.91c-3.94,6.81-8.12,17.93-2.47,24.72c0.38,0.45,0.54,0.75,0.96,1.16
		c0.39,0.37,0.73,0.56,1.11,0.88c0.77,0.65,1.46,1.1,2.58,1.53c5.94,2.28,12.22-0.38,16.74-4.17l6.83-7.51
		c5.42-6.81,9.11-15.56,12.23-24.56c0.35-1.01,1.76-5.71,2.2-6.06c1.23-1,42.22-9.25,47.8-9.5c-0.23,1.83-0.43,4.1,0.49,5.53
		c0.82,1.27,2.32,2.03,4.25,1.1c2.68-1.29,3.49-4.3,4.39-7.94c4.67-0.72,9.42-1.25,14.09-1.89c4.67-0.64,9.38-1.3,14.06-1.88
		c3.48-0.43,21.52-1.85,24.27-3.62c2.66-1.71,1.89-6.29-0.53-7.78c-1.78-1.1-4.87-0.98-7.09-0.94c-4.84,0.11-9.87,0.83-14.67,1.33
		c-9.5,0.99-19,2.37-28.44,3.62l1.43-10.16c0.1-0.6,0.27-2.72,0.69-3.18c0.49,0.85,2.68,2.48,3.96,3.07
		c4.95,2.3,10.45,1.25,13.87-2.92c4.54-5.54,7.22-12.43,9.05-20.69c1.36-6.14,2.53-18.61-1.47-23.88
		c-2.08-2.74-6.03-3.79-10.29-1.98c-0.89,0.38-1.6,0.91-2.2,1.39c-0.95,0.77-2.56,2.6-3.32,3.59c-0.21,0.27-0.48,0.63-0.72,1.01
		c-0.24,0.37-0.39,0.78-0.73,1.07c0.25-2.92,1.66-4.39-1.83-5.36c-2.23-0.62-4.69-1.43-5.81,1.09c-0.71,1.59-4.82,24.06-5.26,26.35
		c-0.36,1.86-1.25,8.38-2.21,9.76c-0.44,0.63-1.35,1.36-2.1,1.77c-2.91,1.61-3.59,1.28-3.59-2.44c0-2.4,0.41-4.77,0.85-7.05
		c1.28-6.51,2.84-13.04,4.27-19.51c0.4-1.83,1.34-4.79,0.55-6.53c-0.96-2.13-6.5-3.64-7.98-0.8c-0.36,0.68-0.6,2.36-1.12,2.85
		c-0.29-0.25-0.17-0.21-0.41-0.48c-2.05-2.32-6.84-2.9-10.08-1.58c-2.33,0.94-3.84,2.59-5.56,4.26
		c-4.88,4.78-8.95,14.53-10.49,21.78c-1.56,7.35-3.37,23.72,7.69,25.18c2.12,0.28,4.23-0.01,5.94-0.91
		c0.92-0.48,1.47-0.87,2.11-1.47c1.22-1.14,2.24-2.3,3.1-3.8l1.27-2.26c0.16,1.58,0.91,3.15,1.73,4.01c0.06,0.06,0.14,0.14,0.2,0.2
		c2.35,2.3,5.36,1.65,8.18,0.5c1.27-0.52,2.73-1.71,3.56-2.01c-0.24,1.31-1.75,9.73-2.13,10.26c-0.31,0.23-22.22,3.39-23.27,3.56
		c-3.87,0.63-7.61,1.25-11.45,1.98c-1.87,0.36-3.74,0.67-5.61,1.02c-1.87,0.35-3.74,0.8-5.53,1.14c1.04-4.55,2.65-9.45,3.93-14.03
		l7.82-27.78c1.3-4.64,2.72-9.29,3.88-13.93c0.58-2.29,1.78-5.75-1.21-6.23C64.39,100.56,59.68,104.34,58.22,108.34L58.22,108.34
		L58.22,108.34L58.22,108.34z"/>
	<path style="fill-rule:evenodd;clip-rule:evenodd;fill:#5E0B72;" d="M153.13,112.09c0.51-2.72,2.56-6.79,3.87-8.85
		c1.18-1.85,4.52-6.79,6.93-4.3c2.36,2.44-1.3,7.54-2.56,8.66C159.37,109.37,156.76,111.36,153.13,112.09L153.13,112.09
		L153.13,112.09L153.13,112.09z M173.16,100.36c2-11.41-10.04-13.44-16.29-9.35c-1.98,1.3-4.28,3.47-5.84,5.31
		c-2.34,2.78-5.38,8.43-6.85,11.74c-3.09,6.99-5.19,16.94-3.75,25.27c0.47,2.73,1.75,5.78,3.69,7.45c0.59,0.51,1.33,1.1,2.19,1.51
		c4.02,1.9,8.27,0.75,11.98-0.86c3.1-1.35,4.57-2.44,6.85-4.3l2.94-2.64c1.18-1.35,1.61-1.53,2.7-2.88c1.46-1.82,1.25-3.28,0.29-5.7
		c-0.61-1.54-1.65-4.13-3.68-2.73c-0.87,0.6-2.7,3.22-5.66,5.51c-0.73,0.57-1.3,1.02-2.16,1.57c-3.22,2.05-8.21,3.89-9.47-1.45
		c-0.52-2.19-0.03-4.34,0.66-6.3c0.58-1.64,0.23-1.44,2.03-1.71c5.2-0.78,12.05-4.6,15.16-9.01
		C170.33,108.45,172.34,105.09,173.16,100.36L173.16,100.36L173.16,100.36L173.16,100.36z"/>
	<path style="fill:#01D0B5;" d="M101.12,5C80.73,5,64.2,21.53,64.2,41.92c0,9.73,3.77,18.57,9.92,25.17l-0.87,15.64
		c-0.08,1.42,1.51,2.31,2.68,1.51l11.62-7.99c4.2,1.66,8.77,2.58,13.56,2.58c20.39,0,36.92-16.53,36.92-36.92
		C138.04,21.52,121.51,5,101.12,5L101.12,5L101.12,5L101.12,5z M103.81,56.59L103.81,56.59c-0.94,1.6-2.24,2.84-3.85,3.68
		c-1.6,0.83-3.54,1.24-5.76,1.24c-3.48,0-6.31-1.04-8.4-3.1c-2.09-2.06-3.19-4.86-3.27-8.33c0-0.02-0.06-0.72,0.45-1.3
		c0.4-0.46,1-0.7,1.79-0.72c0.92-0.01,1.65,0.19,2.1,0.64c0.34,0.34,0.46,0.77,0.45,1.05c0.16,1.52,0.53,2.78,1.09,3.65
		c0.55,0.85,1.36,1.55,2.41,2.08c1.06,0.54,2.27,0.81,3.61,0.81c1.91,0,3.4-0.44,4.41-1.32c1-0.86,1.48-1.94,1.48-3.32
		c0-0.8-0.17-1.47-0.52-2.06c-0.35-0.58-0.89-1.06-1.62-1.44c-0.81-0.42-2.61-1.04-5.37-1.83c-2.62-0.75-4.44-1.5-5.58-2.29
		c-1.16-0.8-2.08-1.83-2.72-3.06c-0.65-1.23-0.97-2.63-0.97-4.17c0-2.75,0.94-5.04,2.78-6.81c1.83-1.75,4.32-2.64,7.39-2.64
		c2.09,0,3.95,0.41,5.54,1.22c1.61,0.82,2.88,2.02,3.77,3.57c0.88,1.52,1.35,3.33,1.42,5.37c0,0.05,0.04,0.81-0.51,1.42
		c-0.27,0.3-0.79,0.66-1.69,0.69c-0.93,0.04-1.64-0.18-2.12-0.63c-0.5-0.47-0.55-1.02-0.55-1.13c-0.16-1.81-0.72-3.18-1.65-4.04
		c-0.94-0.86-2.31-1.29-4.09-1.29c-1.81,0-3.19,0.38-4.1,1.13c-0.88,0.73-1.31,1.64-1.31,2.8c0,1.07,0.3,1.87,0.91,2.43
		c0.47,0.43,1.69,1.11,4.88,1.97c2.7,0.73,4.56,1.35,5.67,1.89l0.01,0c1.74,0.86,3.08,2.02,3.98,3.45c0.9,1.43,1.36,3.14,1.36,5.1
		C105.22,53.21,104.74,55,103.81,56.59L103.81,56.59L103.81,56.59L103.81,56.59z M125.78,32.82L125.78,32.82L111.5,58.79
		c-0.45,0.83-1.32,1.34-2.27,1.34c-0.43,0-0.86-0.11-1.24-0.32c-1.25-0.69-1.71-2.26-1.02-3.51l14.28-25.97
		c0.69-1.24,2.26-1.71,3.51-1.02h0C126.01,30,126.47,31.58,125.78,32.82L125.78,32.82L125.78,32.82z"/>
</g>
</svg>
